<svg width="38" height="38" viewBox="0 0 38 38" fill="none" xmlns="http://www.w3.org/2000/svg">
<path d="M19 36.8125C28.8376 36.8125 36.8125 28.8376 36.8125 19C36.8125 9.16243 28.8376 1.1875 19 1.1875C9.16243 1.1875 1.1875 9.16243 1.1875 19C1.1875 28.8376 9.16243 36.8125 19 36.8125Z" fill="#515570"/>
<path opacity="0.5" d="M19 33.25C26.8701 33.25 33.25 26.8701 33.25 19C33.25 11.1299 26.8701 4.75 19 4.75C11.1299 4.75 4.75 11.1299 4.75 19C4.75 26.8701 11.1299 33.25 19 33.25Z" fill="#393C54"/>
<path d="M10.3906 20.2944V15.5622C10.3906 11.2011 13.4811 7.36251 17.7828 6.65595C19.0621 6.43526 20.3741 6.49689 21.6271 6.83654C22.88 7.17618 24.0435 7.78562 25.0362 8.62218C26.0289 9.45874 26.8267 10.5022 27.3737 11.6795C27.9208 12.8567 28.2038 14.1393 28.2031 15.4375V20.4191C28.2038 21.7172 27.9208 22.9999 27.3737 24.1771C26.8267 25.3544 26.0289 26.3978 25.0362 27.2344C24.0435 28.071 22.88 28.6804 21.6271 29.02C20.3741 29.3597 19.0621 29.4213 17.7828 29.2006C13.4811 28.5 10.3906 24.6555 10.3906 20.2944Z" fill="#FFD8C9"/>
<path d="M23.6372 25.5313H14.3628C12.5688 25.5309 10.7996 25.9509 9.19723 26.7578C7.59487 27.5647 6.20391 28.7358 5.13593 30.1773C6.80549 32.2471 8.91728 33.9167 11.3163 35.0638C13.7154 36.2109 16.3408 36.8062 19 36.8062C21.6592 36.8062 24.2846 36.2109 26.6836 35.0638C29.0827 33.9167 31.1945 32.2471 32.864 30.1773C31.7961 28.7358 30.4051 27.5647 28.8027 26.7578C27.2004 25.9509 25.4312 25.5309 23.6372 25.5313Z" fill="#F85565"/>
<path opacity="0.2" d="M16.8299 12.3381C16.8299 12.3381 14.921 12.5638 13.6177 13.6919" stroke="#515570" stroke-width="12.5" stroke-linecap="round" stroke-linejoin="round"/>
<path d="M27.6509 12.442C25.6767 9.65436 23.0642 7.36249 19.4008 7.36249C15.7373 7.36249 12.8072 9.31889 11.017 12.1897C10.4233 13.1337 11.5098 12.8755 12.5459 12.2609C13.582 11.6464 18.1094 10.9844 18.1094 10.9844C18.1094 10.9844 16.9219 11.5781 16.438 12.3826C17.7026 12.5192 19.8223 11.21 19.8223 11.21C19.5978 11.5691 19.4418 11.9667 19.3622 12.3826C20.5497 12.0205 21.4017 11.6167 21.8975 11.0734C22.3933 10.5301 28.5683 13.7394 27.6509 12.442Z" fill="white"/>
<path d="M27.5203 12.1422C27.5203 12.1422 27.3808 6.28483 21.8322 4.7203C16.2836 3.15577 11.6137 6.16311 9.34263 8.44311C7.12497 10.6875 6.14231 12.6825 5.7356 12.8636C7.71872 11.6256 10.3668 11.5781 11.0586 12.2312C11.0586 12.2312 14.0273 8.17296 19.4008 8.17296C20.9672 8.17143 22.5133 8.52831 23.9207 9.21628C25.328 9.90426 26.5593 10.9051 27.5203 12.1422Z" fill="#F85565"/>
<path opacity="0.4" d="M23.3462 20.8139C24.4972 20.8139 25.4303 19.8808 25.4303 18.7298C25.4303 17.5788 24.4972 16.6458 23.3462 16.6458C22.1952 16.6458 21.2622 17.5788 21.2622 18.7298C21.2622 19.8808 22.1952 20.8139 23.3462 20.8139Z" fill="#FF8475"/>
<path opacity="0.4" d="M15.6364 20.8139C16.7874 20.8139 17.7205 19.8808 17.7205 18.7298C17.7205 17.5788 16.7874 16.6458 15.6364 16.6458C14.4854 16.6458 13.5524 17.5788 13.5524 18.7298C13.5524 19.8808 14.4854 20.8139 15.6364 20.8139Z" fill="#FF8475"/>
<path d="M19.2969 30.4564C21.351 30.1628 23.301 29.3671 24.9741 28.1398C26.6473 26.9126 27.9919 25.2916 28.8889 23.4205C32.1011 16.8892 27.7816 12.733 27.7816 12.733C27.9582 13.9421 28.0663 15.1602 28.1051 16.3816C28.1912 18.5963 27.3689 19.8134 26.4991 20.5081C25.6292 21.2028 24.2844 21.2028 23.5689 19.855C22.8534 18.5072 21.1672 19.4245 19.2969 19.4245C17.4266 19.4245 15.7344 18.5131 15.0248 19.858C14.3153 21.2028 12.9645 21.2058 12.0947 20.5111C11.2248 19.8164 10.4025 18.5992 10.4886 16.3845C10.5747 14.1698 10.7498 13.015 10.7498 13.015C10.7498 13.015 6.31749 16.9041 9.53265 23.4205C10.4562 25.3057 11.8304 26.934 13.5336 28.1613C15.2367 29.3886 17.2163 30.1769 19.2969 30.4564Z" fill="white"/>
<path opacity="0.1" d="M9.89783 14.9002C9.84439 16.3163 10.162 17.3227 10.6222 18.047C10.5092 17.5005 10.4653 16.942 10.4916 16.3845C10.5777 14.1699 10.7528 13.015 10.7528 13.015C10.4527 13.2997 10.1822 13.614 9.94533 13.9531C9.92751 14.25 9.91267 14.5469 9.89783 14.9002Z" fill="#356CB6"/>
<path opacity="0.1" d="M29.1115 14.6448C29.6607 16.4706 29.7676 18.9555 28.2981 21.9361L28.2001 22.1291C24.2012 29.9309 13.0595 29.9339 9.03981 22.1291L8.94185 21.9331C8.90919 21.8678 8.88247 21.8025 8.85278 21.7401C9.03813 22.3155 9.26637 22.8762 9.5356 23.4175C10.4585 25.3029 11.8321 26.9316 13.5347 28.1594C15.2374 29.3872 17.2165 30.1761 19.2968 30.4564C21.351 30.1628 23.301 29.3671 24.9741 28.1398C26.6472 26.9125 27.9919 25.2916 28.8889 23.4205C30.8097 19.5284 30.0407 16.4736 29.1115 14.6448Z" fill="#356CB6"/>
<path d="M19.4216 20.0628C20.5332 20.0628 21.4344 19.466 21.4344 18.7298C21.4344 17.9936 20.5332 17.3969 19.4216 17.3969C18.3099 17.3969 17.4088 17.9936 17.4088 18.7298C17.4088 19.466 18.3099 20.0628 19.4216 20.0628Z" fill="#FF8475"/>
<path opacity="0.2" d="M23.1295 18.2549C24.2822 18.2549 25.2166 17.3205 25.2166 16.1678C25.2166 15.0152 24.2822 14.0808 23.1295 14.0808C21.9769 14.0808 21.0425 15.0152 21.0425 16.1678C21.0425 17.3205 21.9769 18.2549 23.1295 18.2549Z" fill="#00ADFE"/>
<path opacity="0.2" d="M15.6602 18.2549C16.8128 18.2549 17.7472 17.3205 17.7472 16.1678C17.7472 15.0152 16.8128 14.0808 15.6602 14.0808C14.5075 14.0808 13.5731 15.0152 13.5731 16.1678C13.5731 17.3205 14.5075 18.2549 15.6602 18.2549Z" fill="#00ADFE"/>
<path d="M23.1295 18.2549C24.2822 18.2549 25.2166 17.3205 25.2166 16.1678C25.2166 15.0152 24.2822 14.0808 23.1295 14.0808C21.9769 14.0808 21.0425 15.0152 21.0425 16.1678C21.0425 17.3205 21.9769 18.2549 23.1295 18.2549Z" stroke="#515570" stroke-linecap="round" stroke-linejoin="round"/>
<path d="M15.6602 18.2549C16.8128 18.2549 17.7472 17.3205 17.7472 16.1678C17.7472 15.0152 16.8128 14.0808 15.6602 14.0808C14.5075 14.0808 13.5731 15.0152 13.5731 16.1678C13.5731 17.3205 14.5075 18.2549 15.6602 18.2549Z" stroke="#515570" stroke-linecap="round" stroke-linejoin="round"/>
<path d="M16.4617 16.2094C16.4684 16.3189 16.4525 16.4287 16.4152 16.5319C16.3779 16.6351 16.3198 16.7296 16.2446 16.8095C16.1693 16.8895 16.0786 16.9532 15.9778 16.9967C15.877 17.0403 15.7684 17.0627 15.6587 17.0627C15.5489 17.0627 15.4403 17.0403 15.3395 16.9967C15.2388 16.9532 15.148 16.8895 15.0728 16.8095C14.9975 16.7296 14.9395 16.6351 14.9021 16.5319C14.8648 16.4287 14.8489 16.3189 14.8556 16.2094" stroke="#515570" stroke-linecap="round" stroke-linejoin="round"/>
<path d="M23.9311 16.2094C23.9378 16.3189 23.9219 16.4287 23.8846 16.5319C23.8472 16.6351 23.7892 16.7296 23.714 16.8095C23.6387 16.8895 23.5479 16.9532 23.4472 16.9967C23.3464 17.0403 23.2378 17.0627 23.128 17.0627C23.0183 17.0627 22.9097 17.0403 22.8089 16.9967C22.7082 16.9532 22.6174 16.8895 22.5421 16.8095C22.4669 16.7296 22.4088 16.6351 22.3715 16.5319C22.3342 16.4287 22.3183 16.3189 22.325 16.2094" stroke="#515570" stroke-linecap="round" stroke-linejoin="round"/>
<path d="M21.0455 15.9422C20.8139 16.34 20.1548 16.625 19.3978 16.625C18.6408 16.625 17.9966 16.3459 17.7591 15.9541" stroke="#515570" stroke-linecap="round" stroke-linejoin="round"/>
<path d="M24.9642 15.1733L27.1106 14.0808" stroke="#515570" stroke-linecap="round" stroke-linejoin="round"/>
<path d="M13.7334 15.1733L11.587 14.0808" stroke="#515570" stroke-linecap="round" stroke-linejoin="round"/>
<path opacity="0.25" d="M11.0586 12.2313C10.8478 10.6697 11.7473 9.10815 11.7473 9.10815C11.7473 9.10815 8.69546 9.75534 7.3714 12.2313C9.10218 11.786 10.8122 11.6732 11.0586 12.2313Z" fill="#393C54"/>
<path opacity="0.2" d="M22.1291 12.6855C22.1291 12.6855 24.0409 12.5638 25.3442 13.6919" stroke="#515570" stroke-width="2" stroke-linecap="round" stroke-linejoin="round"/>
<path d="M6.30264 14.5765C7.39789 14.5765 8.28577 13.6887 8.28577 12.5934C8.28577 11.4982 7.39789 10.6103 6.30264 10.6103C5.20739 10.6103 4.31952 11.4982 4.31952 12.5934C4.31952 13.6887 5.20739 14.5765 6.30264 14.5765Z" fill="white"/>
<path d="M21.5383 21.0781C21.5788 21.0781 21.6189 21.0863 21.6562 21.1023C21.6934 21.1183 21.727 21.1418 21.7548 21.1713C21.7826 21.2008 21.8041 21.2356 21.8179 21.2737C21.8317 21.3118 21.8376 21.3524 21.8352 21.3928C21.7676 22.0149 21.4726 22.5901 21.0069 23.008C20.5411 23.4259 19.9375 23.657 19.3117 23.657C18.686 23.657 18.0823 23.4259 17.6166 23.008C17.1508 22.5901 16.8559 22.0149 16.7883 21.3928C16.7859 21.3524 16.7917 21.3118 16.8056 21.2737C16.8194 21.2356 16.8409 21.2008 16.8687 21.1713C16.8965 21.1418 16.93 21.1183 16.9673 21.1023C17.0045 21.0863 17.0446 21.0781 17.0852 21.0781H21.5383Z" fill="#393C54"/>
<path d="M19.2969 23.649C19.6486 23.6486 19.9964 23.5747 20.318 23.432C20.6396 23.2894 20.9278 23.0812 21.1642 22.8208C20.6629 22.3371 19.9935 22.0669 19.2969 22.0669C18.6003 22.0669 17.9309 22.3371 17.4295 22.8208C17.666 23.0812 17.9542 23.2894 18.2758 23.432C18.5973 23.5747 18.9451 23.6486 19.2969 23.649Z" fill="#F85565"/>
<path d="M19 35.0312C19.6558 35.0312 20.1875 34.4996 20.1875 33.8438C20.1875 33.1879 19.6558 32.6562 19 32.6562C18.3442 32.6562 17.8125 33.1879 17.8125 33.8438C17.8125 34.4996 18.3442 35.0312 19 35.0312Z" fill="white"/>
<path opacity="0.25" d="M25.7925 35.4647C26.4877 35.1774 27.164 34.8462 27.8172 34.4731L26.6297 31.1719L25.7925 35.4647Z" fill="#393C54"/>
<path opacity="0.25" d="M12.2075 35.4647L11.3703 31.1719L10.1828 34.4731C10.836 34.8462 11.5123 35.1774 12.2075 35.4647Z" fill="#393C54"/>
</svg>
